<?xml version="1.0" encoding="utf-8"?>
<!-- Generator: Adobe Illustrator 23.0.2, SVG Export Plug-In . SVG Version: 6.00 Build 0)  -->
<svg version="1.1" id="Layer_1" xmlns="http://www.w3.org/2000/svg" xmlns:xlink="http://www.w3.org/1999/xlink" x="0px" y="0px"
	 viewBox="0 0 56.69 56.69" style="enable-background:new 0 0 56.69 56.69;" xml:space="preserve">
<style type="text/css">
	.st0{fill:#24BA4D;}
</style>
<g>
	<path class="st0" d="M56.69,29.91c0,1.24-0.45,2.33-1.35,3.27l-2.73,2.73c-0.92,0.92-2.03,1.38-3.31,1.38
		c-1.31,0-2.4-0.46-3.27-1.38l-10.7-10.66v25.62c0,1.26-0.45,2.29-1.36,3.07c-0.91,0.79-2.01,1.18-3.29,1.18h-4.66
		c-1.29,0-2.38-0.4-3.29-1.18c-0.91-0.79-1.36-1.81-1.36-3.07V25.25l-10.7,10.66C9.79,36.84,8.7,37.3,7.39,37.3s-2.4-0.46-3.27-1.38
		l-2.73-2.73C0.46,32.26,0,31.17,0,29.91c0-1.28,0.46-2.39,1.38-3.31L25.07,2.91c0.85-0.9,1.94-1.35,3.27-1.35
		c1.31,0,2.41,0.45,3.31,1.35L55.35,26.6C56.24,27.55,56.69,28.65,56.69,29.91z"/>
</g>
</svg>
