<?xml version="1.0" encoding="utf-8"?>
<!-- Generator: Adobe Illustrator 23.0.2, SVG Export Plug-In . SVG Version: 6.00 Build 0)  -->
<svg version="1.1" id="Layer_1" xmlns="http://www.w3.org/2000/svg" xmlns:xlink="http://www.w3.org/1999/xlink" x="0px" y="0px"
	 viewBox="0 0 56.69 56.69" style="enable-background:new 0 0 56.69 56.69;" xml:space="preserve">
<style type="text/css">
	.st0{fill:#EC4E4E;}
</style>
<g>
	<path class="st0" d="M0,26.78c0-1.24,0.45-2.33,1.35-3.27l2.73-2.73C5,19.86,6.1,19.39,7.39,19.39c1.31,0,2.4,0.46,3.27,1.38
		l10.7,10.66V5.82c0-1.26,0.45-2.29,1.36-3.07c0.91-0.79,2.01-1.18,3.29-1.18h4.66c1.29,0,2.38,0.4,3.29,1.18
		c0.91,0.79,1.36,1.81,1.36,3.07v25.62l10.7-10.66c0.87-0.92,1.96-1.38,3.27-1.38s2.4,0.46,3.27,1.38l2.73,2.73
		c0.92,0.92,1.38,2.01,1.38,3.27c0,1.28-0.46,2.39-1.38,3.31L31.62,53.78c-0.85,0.9-1.94,1.35-3.27,1.35
		c-1.31,0-2.41-0.45-3.31-1.35L1.35,30.09C0.45,29.15,0,28.04,0,26.78z"/>
</g>
</svg>
