<svg xmlns="http://www.w3.org/2000/svg" width="510" height="484.5" viewBox="0 0 510 484.5">
  <g id="activity-log" transform="translate(0 -12.75)">
    <g id="history">
      <path id="Path_34" data-name="Path 34" d="M267.75,12.75c-89.25,0-168.3,48.45-209.1,122.4L0,76.5V242.25H165.75l-71.4-71.4c33.15-63.75,96.9-107.1,173.4-107.1C372.3,63.75,459,150.45,459,255S372.3,446.25,267.75,446.25c-84.15,0-153-53.55-181.05-127.5H33.15c28.05,102,122.4,178.5,234.6,178.5C402.9,497.25,510,387.6,510,255S400.35,12.75,267.75,12.75ZM229.5,140.25V270.3l119.85,71.4,20.4-33.15-102-61.2V140.25Z" fill="#58c619" opacity="0.9"/>
    </g>
  </g>
</svg>
