<svg xmlns="http://www.w3.org/2000/svg" width="512" height="435.27" viewBox="0 0 512 435.27">
  <g id="alert" transform="translate(0 -38.365)">
    <g id="Group_100" data-name="Group 100">
      <path id="Path_35" data-name="Path 35" d="M507.494,426.066,282.864,53.537a31.371,31.371,0,0,0-53.73,0L4.506,426.066A31.37,31.37,0,0,0,31.37,473.635H480.629a31.371,31.371,0,0,0,26.865-47.569ZM256.167,167.227c12.9,0,23.817,7.278,23.817,20.178,0,39.363-4.631,95.929-4.631,135.292,0,10.255-11.247,14.554-19.186,14.554-10.584,0-19.516-4.3-19.516-14.554,0-39.363-4.63-95.929-4.63-135.292C232.021,174.505,242.6,167.227,256.167,167.227Zm.331,243.791a25.47,25.47,0,1,1,0-50.94c13.562,0,25.14,11.577,25.14,25.47C281.638,399.11,270.06,411.018,256.5,411.018Z" fill="#58c619"/>
    </g>
  </g>
</svg>
