<svg xmlns="http://www.w3.org/2000/svg" width="398.318" height="398.334" viewBox="0 0 398.318 398.334">
  <path id="custom" d="M206.527,7.106C96.711,7.106,7.368,96.449,7.368,206.265S96.711,405.44,206.527,405.44s199.159-89.351,199.159-199.175S316.351,7.106,206.527,7.106Zm110.04,184.6v.008l-57.655,41.715L281.117,301.3a10.586,10.586,0,0,1,.538,3.345,10.734,10.734,0,0,1-17.015,8.712l-58.1-42.028-58.1,42.028a10.74,10.74,0,0,1-17.023-8.712,10.554,10.554,0,0,1,.546-3.345l22.213-67.868L96.511,191.713V191.7a10.722,10.722,0,0,1,6.289-19.414h71.373l22.1-67.555a10.739,10.739,0,0,1,20.529,0l22.1,67.555h71.373a10.722,10.722,0,0,1,6.289,19.414Z" transform="translate(-7.368 -7.106)" fill="#58c619"/>
</svg>
