<svg xmlns="http://www.w3.org/2000/svg" width="511.626" height="401.997" viewBox="0 0 511.626 401.997">
  <g id="dashboard" transform="translate(0 -54.815)">
    <path id="Path_34" data-name="Path 34" d="M491.361,211.274q-20.266-47.4-54.529-81.658t-81.659-54.53a253.636,253.636,0,0,0-198.716,0Q109.064,95.363,74.8,129.616T20.27,211.274A250.1,250.1,0,0,0,0,310.631q0,74.8,40.256,137.9a17.369,17.369,0,0,0,15.417,8.278H455.954a17.37,17.37,0,0,0,15.414-8.278q40.26-63.381,40.258-137.9A250.125,250.125,0,0,0,491.361,211.274ZM229.973,102.069a36.55,36.55,0,0,1,62.389,25.837,36.543,36.543,0,0,1-62.389,25.837,36.527,36.527,0,0,1,0-51.674ZM98.929,336.469a35.232,35.232,0,0,1-25.84,10.715,35.23,35.23,0,0,1-25.837-10.715,36.533,36.533,0,0,1,0-51.675,35.209,35.209,0,0,1,25.837-10.708,35.2,35.2,0,0,1,25.84,10.708,36.528,36.528,0,0,1,0,51.675Zm54.819-127.907a36.532,36.532,0,0,1-51.682,0,36.529,36.529,0,0,1,0-51.674,36.532,36.532,0,0,1,51.682,0,36.529,36.529,0,0,1,0,51.674Zm161.734,2.428L286.643,320.052a54.284,54.284,0,0,1,20.564,25.98,54.917,54.917,0,0,1-23.7,66.807,53.367,53.367,0,0,1-41.686,5.712,52.423,52.423,0,0,1-33.4-25.41,54.667,54.667,0,0,1,12.279-69.8,54.259,54.259,0,0,1,30.546-12.422l28.837-109.064a18.03,18.03,0,0,1,8.562-11.281,17.033,17.033,0,0,1,13.706-1.853,18.7,18.7,0,0,1,13.135,22.27Zm42.4-2.428a36.517,36.517,0,0,1,0-51.674,36.55,36.55,0,0,1,62.387,25.837,36.542,36.542,0,0,1-62.387,25.837ZM464.374,336.469a36.535,36.535,0,1,1,10.7-25.838A35.226,35.226,0,0,1,464.374,336.469Z" fill="#58c619"/>
  </g>
</svg>
