<svg id="detection" xmlns="http://www.w3.org/2000/svg" width="668.396" height="668.396" viewBox="0 0 668.396 668.396">
  <g id="Group_100" data-name="Group 100">
    <path id="Path_34" data-name="Path 34" d="M334.2,0C149.921,0,0,149.921,0,334.2S149.921,668.4,334.2,668.4,668.4,518.475,668.4,334.2,518.475,0,334.2,0Zm0,597.285C189.134,597.285,71.1,479.27,71.1,334.2S189.134,71.112,334.2,71.112,597.292,189.127,597.292,334.2,479.263,597.285,334.2,597.285Z" fill="#58c619"/>
    <path id="Path_35" data-name="Path 35" d="M249.29,224.93H99.1V44.347a27.517,27.517,0,1,0-55.035,0v208.1a27.519,27.519,0,0,0,27.517,27.517H249.29a27.517,27.517,0,0,0,0-55.035Z" transform="translate(259.079 98.949)" fill="#58c619"/>
  </g>
</svg>
