<svg xmlns="http://www.w3.org/2000/svg" width="593.137" height="711.765" viewBox="0 0 593.137 711.765">
  <path id="governance" d="M760.167,513.539V216.971h-207.6V743.843q55.143-29.193,98.7-63.484Q760.167,595.1,760.167,513.539Zm88.971-355.882V513.539q0,39.851-15.523,79.008t-38.461,69.508a428.986,428.986,0,0,1-54.68,59.082q-31.742,28.73-58.619,47.729t-56.07,35.913q-29.194,16.914-41.473,22.938t-19.694,9.268a27.494,27.494,0,0,1-24.1,0q-7.414-3.244-19.694-9.268t-41.473-22.938q-29.193-16.914-56.07-35.913t-58.619-47.729a428.982,428.982,0,0,1-54.68-59.082q-22.938-30.352-38.461-69.508T256,513.539V157.657A30.07,30.07,0,0,1,285.657,128H819.48a30.069,30.069,0,0,1,29.657,29.657Z" transform="translate(-256 -128)" fill="#58c619"/>
</svg>
