<svg xmlns="http://www.w3.org/2000/svg" width="666.061" height="689" viewBox="0 0 666.061 689">
  <g id="integration" transform="translate(-8.144)">
    <g id="Group_101" data-name="Group 101" transform="translate(8.144 0)">
      <path id="Path_36" data-name="Path 36" d="M674.146,426.119A17.311,17.311,0,0,0,656.822,408.8H67.116l103.66-103.66A17.229,17.229,0,1,0,146.41,280.77l-133.1,133.1a17.171,17.171,0,0,0,0,24.366l133.1,133.1a17.279,17.279,0,1,0,24.507-24.366L67.257,443.3H657.1A17.131,17.131,0,0,0,674.146,426.119Z" transform="translate(-8.103 112.602)" fill="#58c619"/>
      <path id="Path_37" data-name="Path 37" d="M669.116,138.025,536.021,5.07a17.229,17.229,0,0,0-24.366,24.366L615.315,133.1H25.468a17.324,17.324,0,0,0,0,34.647H615.315L511.655,271.121a17.279,17.279,0,0,0,24.507,24.366l133.1-133.1A17.3,17.3,0,0,0,669.116,138.025Z" transform="translate(-8.144 0)" fill="#58c619"/>
    </g>
  </g>
</svg>
