<svg xmlns="http://www.w3.org/2000/svg" width="347.824" height="470.585" viewBox="0 0 347.824 470.585">
  <g id="report" transform="translate(-61.381)">
    <path id="Path_34" data-name="Path 34" d="M327.081,0H90.234A28.9,28.9,0,0,0,61.381,28.859V441.722a28.889,28.889,0,0,0,28.853,28.863H380.35a28.882,28.882,0,0,0,28.855-28.863V89.234Zm6.81,43.184,36,39.121h-36Zm51.081,398.539a4.645,4.645,0,0,1-4.635,4.629H90.234a4.634,4.634,0,0,1-4.619-4.629V28.859a4.616,4.616,0,0,1,4.619-4.613H309.645V94.427a12.122,12.122,0,0,0,12.129,12.1h63.2ZM128.364,128.89H334.15a9.079,9.079,0,1,1,0,18.158H128.364a9.079,9.079,0,1,1,0-18.158Zm214.865,70.09a9.081,9.081,0,0,1-9.079,9.079H128.364a9.079,9.079,0,1,1,0-18.158H334.15A9.081,9.081,0,0,1,343.229,198.98Zm0,59.013a9.081,9.081,0,0,1-9.079,9.079H128.364a9.079,9.079,0,1,1,0-18.158H334.15A9.081,9.081,0,0,1,343.229,257.993Zm0,60.018a9.081,9.081,0,0,1-9.079,9.079H128.364a9.079,9.079,0,0,1,0-18.158H334.15A9.081,9.081,0,0,1,343.229,318.011Z" fill="#58c619"/>
  </g>
</svg>
