<svg xmlns="http://www.w3.org/2000/svg" width="543.107" height="663.806" viewBox="0 0 543.107 663.806">
  <g id="security-rules" transform="translate(-36.548)">
    <path id="Path_34" data-name="Path 34" d="M566.443,314.931a43.645,43.645,0,0,0-32.063-13.2H519.3V211.209q0-86.746-62.228-148.974T308.1,0Q221.343,0,159.118,62.233T96.89,211.209v90.524H81.806a43.647,43.647,0,0,0-32.058,13.2,43.631,43.631,0,0,0-13.2,32.063V618.548a43.669,43.669,0,0,0,13.2,32.063,43.676,43.676,0,0,0,32.058,13.2H534.392a45.061,45.061,0,0,0,45.263-45.258V346.989A43.618,43.618,0,0,0,566.443,314.931Zm-137.655-13.2H187.409V211.209q0-49.971,35.36-85.329T308.1,90.524q49.981,0,85.332,35.355t35.352,85.329Z" fill="#58c619"/>
  </g>
</svg>
