<svg xmlns="http://www.w3.org/2000/svg" width="716.922" height="716.924" viewBox="0 0 716.922 716.924">
  <g id="key" transform="translate(-0.001 0)">
    <g id="Group_102" data-name="Group 102" transform="translate(0.001 0)">
      <path id="Path_38" data-name="Path 38" d="M649.359,67.563c-90.086-90.086-236.659-90.085-326.745,0a230.967,230.967,0,0,0-56.263,234.486l-260.2,260.2A20.987,20.987,0,0,0,0,577.1V695.92a20.992,20.992,0,0,0,21,21H139.826a20.984,20.984,0,0,0,14.85-6.154l29.7-29.722a21.006,21.006,0,0,0,6.01-17.271l-3.692-31.916,44.222-4.164a20.969,20.969,0,0,0,18.933-18.933l4.164-44.222,31.916,3.712a20.668,20.668,0,0,0,16.388-5.168,21.059,21.059,0,0,0,7.035-15.691V508.288h38.4a20.984,20.984,0,0,0,14.85-6.154l53.863-53.15c82.25,26.665,171.363,6.9,232.9-54.674C739.445,304.225,739.445,157.649,649.359,67.563ZM589.94,216.087a63,63,0,1,1,0-89.1A63.062,63.062,0,0,1,589.94,216.087Z" transform="translate(-0.001 0.001)" fill="#58c619"/>
    </g>
  </g>
</svg>
