<svg xmlns="http://www.w3.org/2000/svg" width="675.237" height="675.237" viewBox="0 0 675.237 675.237">
  <path id="settings" d="M649.506,394.769l-25.265-27.137a4.121,4.121,0,0,0-.006-.825c.543-6.052.9-12.148,1.141-18.25.055-1.761-.017-3.643.017-5.4.05-4.679-.017-9.2-.227-13.721-.089-1.977-.194-3.815-.321-5.781-.105-3.018-.26-6-.487-9.147l25.337-26.948c12.087-12.873,34.03-29.966,27.314-46.239l-27.74-67.312c-6.716-16.29-34.3-12.873-51.931-13.488l-36.992-1.334c-2.8-3.344-5.808-6.522-8.7-9.751-.111-.122-.244-.31-.382-.482-1.03-1.08-1.9-2.254-2.94-3.317-1.567-1.705-3.372-3.333-4.989-4.994-2.342-2.359-4.673-4.756-7.076-7.037-3.942-3.793-8.1-7.37-12.2-10.919a5.559,5.559,0,0,0-.576-.432c-.221-.216-.421-.46-.642-.681l-1.2-37.059C521.1,66.967,524.548,39.337,508.37,32.6L441.035,4.582c-16.2-6.744-33.41,15.21-46.244,27.186L367.676,57.083c-6.08-.609-12.115-.925-18.156-1.157-1.689-.066-3.389-.033-5.194-.022-3.892-.033-7.818-.149-11.821.006-5.055.161-10.11.476-15.149.914-.648.033-1.3.033-1.805.078-.36.072-.631.017-1,.089L287.584,31.6c-12.851-12.021-29.966-34.03-46.239-27.325l-67.312,27.74c-16.29,6.711-12.846,34.357-13.494,51.942L159.227,121a12.871,12.871,0,0,0-1.185,1.1q-6.636,5.531-12.984,11.461c-1.556,1.528-3.056,3.067-4.579,4.612-3,2.918-6,5.93-8.876,9.025-1.473,1.606-2.829,3.234-4.263,4.872-1.949,2.115-3.854,4.2-5.72,6.434L84.54,159.638c-17.547.548-45.176-2.9-51.909,13.283L4.6,240.25C-2.141,256.457,19.78,273.6,31.756,286.439l25.32,27.12c-.41,4.2-.592,8.372-.825,12.619.006.393-.066.808-.055,1.2-.343,7.2-.515,14.385-.266,21.55.116,3.145.349,6.235.548,9.374.183,2.536.238,5.116.476,7.646a4.079,4.079,0,0,0,.028.72l-25.37,27.042C19.586,406.541-2.44,423.606,4.265,439.873l27.74,67.313c6.716,16.3,34.379,12.907,51.964,13.549l37.025,1.257c.249.365.548.581.814.958,3.754,4.507,7.7,8.909,11.8,13.338,1.445,1.556,2.973,2.89,4.441,4.418,3.018,3.062,6.057,6.091,9.2,9.042,1.545,1.34,3.178,2.741,4.74,4.186,2.187,1.932,4.313,3.9,6.506,5.664l1.13,37.075c.554,17.547-2.879,45.242,13.311,51.981l67.329,28.028c16.212,6.749,33.349-15.188,46.184-27.164L313.6,624.259c.3.005.587-.033.886-.028,3.494.388,6.96.52,10.426.7,1.041.089,2.049.094,3.034.2,1.628.05,3.189.177,4.762.233,1.86.039,3.715-.017,5.576-.011,4.524.105,9.053.011,13.538-.194,1.955-.067,3.953-.216,5.886-.327,3.051-.133,5.991-.282,8.992-.46l27.015,25.3c12.868,12.087,29.894,34.058,46.161,27.341l67.318-27.74c16.3-6.722,12.929-34.323,13.549-51.964l1.273-36.965c3.173-2.647,6.229-5.4,9.18-8.095a10.845,10.845,0,0,1,1.345-1.2c1.03-.975,2.132-1.794,3.018-2.73,1.794-1.589,3.339-3.344,4.972-4.928,2.337-2.364,4.817-4.728,7.193-7.2,3.449-3.7,6.921-7.58,10.277-11.616A6.7,6.7,0,0,0,559,523.437a5.324,5.324,0,0,0,.615-.609l37.048-1.19c17.546-.548,45.242,2.885,51.981-13.305L676.676,441C683.447,424.807,661.477,407.6,649.506,394.769Zm-160.737-54.14A148.113,148.113,0,1,1,340.656,192.516,148.117,148.117,0,0,1,488.769,340.629Z" transform="translate(-3.021 -3.027)" fill="#58c619"/>
</svg>
