<svg xmlns="http://www.w3.org/2000/svg" width="715" height="715" viewBox="0 0 715 715">
  <path id="user-management" d="M716,358.5C716,161.377,555.637,1,358.5,1S1,161.377,1,358.5C1,459.3,43.1,550.318,110.444,615.371a21.816,21.816,0,0,0,5.63,5.119C179.865,679.562,264.9,716,358.5,716s178.635-36.438,242.426-95.51a21.812,21.812,0,0,0,5.63-5.119C673.9,550.32,716,459.3,716,358.5ZM358.5,45.688c172.495,0,312.813,140.332,312.813,312.813a311.027,311.027,0,0,1-67.635,193.671c-19.38-62.5-74.706-111.424-149.8-133.937,40.922-29.615,67.688-77.6,67.688-131.813,0-89.8-73.141-162.85-163.069-162.85s-163.069,73.054-163.069,162.85c0,54.218,26.766,102.2,67.688,131.813-75.09,22.513-130.417,71.439-149.8,133.937A311.025,311.025,0,0,1,45.688,358.5C45.688,186.02,186.005,45.688,358.5,45.688ZM240.119,286.422c0-65.155,53.1-118.163,118.381-118.163s118.381,53.008,118.381,118.163S423.785,404.585,358.5,404.585,240.119,351.576,240.119,286.422ZM150.875,591.828C157.592,509.9,244.468,449.272,358.5,449.272S559.408,509.9,566.125,591.828c-55.3,49.26-127.912,79.484-207.625,79.484S206.172,641.089,150.875,591.828Z" transform="translate(-1 -1)" fill="#58c619"/>
</svg>
